<svg xmlns="http://www.w3.org/2000/svg" version="1.1" xmlns:xlink="http://www.w3.org/1999/xlink" xmlns:svgjs="http://svgjs.dev/svgjs" width="2000" height="2363" viewBox="0 0 2000 2363"><g transform="matrix(1,0,0,1,2.073365231259686,0.9566801619432681)"><svg viewBox="0 0 209 247" data-background-color="#ffffff" preserveAspectRatio="xMidYMid meet" height="2363" width="2000" xmlns="http://www.w3.org/2000/svg" xmlns:xlink="http://www.w3.org/1999/xlink"><g id="tight-bounds" transform="matrix(1,0,0,1,-0.21666666666664014,-0.09999999999999432)"><svg viewBox="0 0 209.4333333333333 247.2" height="247.2" width="209.4333333333333"><g><svg viewBox="0 0 209.4333333333333 247.2" height="247.2" width="209.4333333333333"><g><svg viewBox="0 0 209.4333333333333 247.2" height="247.2" width="209.4333333333333"><g><svg viewBox="0 0 209.4333333333333 247.2" height="247.2" width="209.4333333333333"><g id="textblocktransform"><svg viewBox="0 0 209.4333333333333 247.2" height="247.2" width="209.4333333333333" id="textblock"><g><svg viewBox="0 0 209.4333333333333 247.2" height="247.2" width="209.4333333333333"><g transform="matrix(1,0,0,1,0,0)"><svg width="209.4333333333333" viewBox="0.85 -36.5 36.6 43.2" height="247.2" data-palette-color="#001f3f"><path d="M15.85 6.7L15.85 6.7Q11.3 6.7 8.38 5.68 5.45 4.65 3.78 2.95 2.1 1.25 1.48-0.95 0.85-3.15 0.85-5.5L0.85-5.5 0.85-12.1Q0.85-12.75 1.03-13.23 1.2-13.7 1.5-13.95L1.5-13.95 8-19.4Q8.25-19.6 8.65-19.73 9.05-19.85 9.6-19.85L9.6-19.85 16.85-19.85Q17.4-19.85 17.82-19.73 18.25-19.6 18.55-19.35L18.55-19.35 18.55-28.75Q18.55-29.4 18.73-29.85 18.9-30.3 19.25-30.6L19.25-30.6 25.7-36.05Q25.95-36.25 26.38-36.38 26.8-36.5 27.3-36.5L27.3-36.5 35.15-36.5Q36.35-36.5 36.9-35.95 37.45-35.4 37.45-34.2L37.45-34.2 37.45-9.45Q37.45-7.1 36.77-5.13 36.1-3.15 34.4-1.75L34.4-1.75 27.95 3.7Q26.25 5.1 23.35 5.9 20.45 6.7 15.85 6.7ZM36.95-9.45L36.95-9.45 36.95-34.2Q36.95-35.15 36.52-35.58 36.1-36 35.15-36L35.15-36 27.3-36Q26.35-36 25.93-35.58 25.5-35.15 25.5-34.2L25.5-34.2 25.5-11.45Q25.5-10.45 24.93-9.78 24.35-9.1 22.2-9.1L22.2-9.1Q19.9-9.1 19.28-9.78 18.65-10.45 18.65-11.45L18.65-11.45 18.65-17.55Q18.65-18.5 18.23-18.93 17.8-19.35 16.85-19.35L16.85-19.35 9.6-19.35Q8.65-19.35 8.22-18.93 7.8-18.5 7.8-17.55L7.8-17.55 7.8-9.45Q7.8-7.15 8.43-5.28 9.05-3.4 10.68-2.08 12.3-0.75 15.13 0 17.95 0.75 22.3 0.75L22.3 0.75Q26.7 0.75 29.55 0 32.4-0.75 34.02-2.08 35.65-3.4 36.3-5.28 36.95-7.15 36.95-9.45ZM30.95-10.65L30.95-31.5 31.45-31.5 31.45-10.65Q31.45-7.7 29.58-5.8 27.7-3.9 22.4-3.9L22.4-3.9Q19.6-3.9 17.78-4.4 15.95-4.9 14.9-5.78 13.85-6.65 13.43-7.9 13-9.15 13-10.65L13-10.65 13-14.6 13.5-14.6 13.5-10.65Q13.5-7.8 15.38-6.1 17.25-4.4 22.4-4.4L22.4-4.4Q27.35-4.4 29.15-6.13 30.95-7.85 30.95-10.65L30.95-10.65Z" opacity="1" transform="matrix(1,0,0,1,0,0)" fill="#001f3f" class="wordmark-text-0" data-fill-palette-color="primary" id="text-0"></path></svg></g></svg></g></svg></g></svg></g></svg></g></svg></g><defs></defs></svg><rect width="209.4333333333333" height="247.2" fill="none" stroke="none" visibility="hidden"></rect></g></svg></g></svg>